<svg viewBox="0 0 48 48" xmlns="http://www.w3.org/2000/svg" aria-hidden="true">
  <path
    fill="#FFC107"
    d="M43.61 20.08H42V20H24v8h11.3C33.65 32.66 29.23 36 24 36c-6.63 0-12-5.37-12-12S17.37 12 24 12c3.06 0 5.84 1.15 7.96 3.04l5.66-5.66A19.93 19.93 0 0 0 24 4C12.95 4 4 12.95 4 24s8.95 20 20 20 20-8.95 20-20c0-1.34-.14-2.65-.39-3.92z"
  />
  <path
    fill="#FF3D00"
    d="M6.31 14.69l6.57 4.82A11.96 11.96 0 0 1 24 12c3.06 0 5.84 1.15 7.96 3.04l5.66-5.66A19.93 19.93 0 0 0 24 4C16.32 4 9.66 8.34 6.31 14.69z"
  />
  <path
    fill="#4CAF50"
    d="M24 44c5.16 0 9.86-1.97 13.4-5.2l-6.19-5.24A11.94 11.94 0 0 1 24 36c-5.21 0-9.62-3.32-11.28-7.94l-6.52 5.02A20 20 0 0 0 24 44z"
  />
  <path
    fill="#1976D2"
    d="M43.61 20.08H42V20H24v8h11.3a11.95 11.95 0 0 1-4.1 5.56l.01-.01 6.19 5.24C36.96 39.2 44 34 44 24c0-1.34-.14-2.65-.39-3.92z"
  />
</svg>